<svg width="317" height="311" viewBox="0 0 317 311" fill="none" xmlns="http://www.w3.org/2000/svg">
<rect x="1.5" y="13.2359" width="296.264" height="296.264" stroke="#34495E" stroke-width="3"/>
<rect x="18.2655" y="1.5" width="296.264" height="296.264" stroke="#41B883" stroke-width="3"/>
<g filter="url(#filter0_d)">
<path d="M104.66 98.0275L91.9157 135.827H87.7037L76.6337 103.589L65.5097 135.827H61.3517L48.6077 98.0275H52.7117L63.6197 130.535L74.9057 98.0275H78.6317L89.7557 130.697L100.826 98.0275H104.66ZM133.746 122.813H109.986C110.202 125.765 111.336 128.159 113.388 129.995C115.44 131.795 118.032 132.695 121.164 132.695C122.928 132.695 124.548 132.389 126.024 131.777C127.5 131.129 128.778 130.193 129.858 128.969L132.018 131.453C130.758 132.965 129.174 134.117 127.266 134.909C125.394 135.701 123.324 136.097 121.056 136.097C118.14 136.097 115.548 135.485 113.28 134.261C111.048 133.001 109.302 131.273 108.042 129.077C106.782 126.881 106.152 124.397 106.152 121.625C106.152 118.853 106.746 116.369 107.934 114.173C109.158 111.977 110.814 110.267 112.902 109.043C115.026 107.819 117.402 107.207 120.03 107.207C122.658 107.207 125.016 107.819 127.104 109.043C129.192 110.267 130.83 111.977 132.018 114.173C133.206 116.333 133.8 118.817 133.8 121.625L133.746 122.813ZM120.03 110.501C117.294 110.501 114.99 111.383 113.118 113.147C111.282 114.875 110.238 117.143 109.986 119.951H130.128C129.876 117.143 128.814 114.875 126.942 113.147C125.106 111.383 122.802 110.501 120.03 110.501ZM150.749 107.207C154.457 107.207 157.301 108.143 159.281 110.015C161.261 111.851 162.251 114.587 162.251 118.223V135.827H158.579V131.399C157.715 132.875 156.437 134.027 154.745 134.855C153.089 135.683 151.109 136.097 148.805 136.097C145.637 136.097 143.117 135.341 141.245 133.829C139.373 132.317 138.437 130.319 138.437 127.835C138.437 125.423 139.301 123.479 141.029 122.003C142.793 120.527 145.583 119.789 149.399 119.789H158.417V118.061C158.417 115.613 157.733 113.759 156.365 112.499C154.997 111.203 152.999 110.555 150.371 110.555C148.571 110.555 146.843 110.861 145.187 111.473C143.531 112.049 142.109 112.859 140.921 113.903L139.193 111.041C140.633 109.817 142.361 108.881 144.377 108.233C146.393 107.549 148.517 107.207 150.749 107.207ZM149.399 133.073C151.559 133.073 153.413 132.587 154.961 131.615C156.509 130.607 157.661 129.167 158.417 127.295V122.651H149.507C144.647 122.651 142.217 124.343 142.217 127.727C142.217 129.383 142.847 130.697 144.107 131.669C145.367 132.605 147.131 133.073 149.399 133.073ZM187.623 134.099C186.903 134.747 186.003 135.251 184.923 135.611C183.879 135.935 182.781 136.097 181.629 136.097C178.965 136.097 176.913 135.377 175.473 133.937C174.033 132.497 173.313 130.463 173.313 127.835V110.663H168.237V107.423H173.313V101.213H177.147V107.423H185.787V110.663H177.147V127.619C177.147 129.311 177.561 130.607 178.389 131.507C179.253 132.371 180.477 132.803 182.061 132.803C182.853 132.803 183.609 132.677 184.329 132.425C185.085 132.173 185.733 131.813 186.273 131.345L187.623 134.099ZM209.074 107.207C212.638 107.207 215.464 108.251 217.552 110.339C219.676 112.391 220.738 115.397 220.738 119.357V135.827H216.904V119.735C216.904 116.783 216.166 114.533 214.69 112.985C213.214 111.437 211.108 110.663 208.372 110.663C205.312 110.663 202.882 111.581 201.082 113.417C199.318 115.217 198.436 117.719 198.436 120.923V135.827H194.602V95.7595H198.436V112.391C199.48 110.735 200.92 109.457 202.756 108.557C204.592 107.657 206.698 107.207 209.074 107.207ZM255.985 122.813H232.225C232.441 125.765 233.575 128.159 235.627 129.995C237.679 131.795 240.271 132.695 243.403 132.695C245.167 132.695 246.787 132.389 248.263 131.777C249.739 131.129 251.017 130.193 252.097 128.969L254.257 131.453C252.997 132.965 251.413 134.117 249.505 134.909C247.633 135.701 245.563 136.097 243.295 136.097C240.379 136.097 237.787 135.485 235.519 134.261C233.287 133.001 231.541 131.273 230.281 129.077C229.021 126.881 228.391 124.397 228.391 121.625C228.391 118.853 228.985 116.369 230.173 114.173C231.397 111.977 233.053 110.267 235.141 109.043C237.265 107.819 239.641 107.207 242.269 107.207C244.897 107.207 247.255 107.819 249.343 109.043C251.431 110.267 253.069 111.977 254.257 114.173C255.445 116.333 256.039 118.817 256.039 121.625L255.985 122.813ZM242.269 110.501C239.533 110.501 237.229 111.383 235.357 113.147C233.521 114.875 232.477 117.143 232.225 119.951H252.367C252.115 117.143 251.053 114.875 249.181 113.147C247.345 111.383 245.041 110.501 242.269 110.501ZM267.514 112.985C268.414 111.077 269.746 109.637 271.51 108.665C273.31 107.693 275.524 107.207 278.152 107.207V110.933L277.234 110.879C274.246 110.879 271.906 111.797 270.214 113.633C268.522 115.469 267.676 118.043 267.676 121.355V135.827H263.842V107.423H267.514V112.985ZM147.739 164.027L130.999 201.827H127.057L110.317 164.027H114.637L129.109 196.859L143.689 164.027H147.739ZM177.114 173.423V201.827H173.442V196.643C172.434 198.371 171.048 199.721 169.284 200.693C167.52 201.629 165.504 202.097 163.236 202.097C159.528 202.097 156.594 201.071 154.434 199.019C152.31 196.931 151.248 193.889 151.248 189.893V173.423H155.082V189.515C155.082 192.503 155.82 194.771 157.296 196.319C158.772 197.867 160.878 198.641 163.614 198.641C166.602 198.641 168.96 197.741 170.688 195.941C172.416 194.105 173.28 191.567 173.28 188.327V173.423H177.114ZM212.584 188.813H188.824C189.04 191.765 190.174 194.159 192.226 195.995C194.278 197.795 196.87 198.695 200.002 198.695C201.766 198.695 203.386 198.389 204.862 197.777C206.338 197.129 207.616 196.193 208.696 194.969L210.856 197.453C209.596 198.965 208.012 200.117 206.104 200.909C204.232 201.701 202.162 202.097 199.894 202.097C196.978 202.097 194.386 201.485 192.118 200.261C189.886 199.001 188.14 197.273 186.88 195.077C185.62 192.881 184.99 190.397 184.99 187.625C184.99 184.853 185.584 182.369 186.772 180.173C187.996 177.977 189.652 176.267 191.74 175.043C193.864 173.819 196.24 173.207 198.868 173.207C201.496 173.207 203.854 173.819 205.942 175.043C208.03 176.267 209.668 177.977 210.856 180.173C212.044 182.333 212.638 184.817 212.638 187.625L212.584 188.813ZM198.868 176.501C196.132 176.501 193.828 177.383 191.956 179.147C190.12 180.875 189.076 183.143 188.824 185.951H208.966C208.714 183.143 207.652 180.875 205.78 179.147C203.944 177.383 201.64 176.501 198.868 176.501Z" fill="#E5E5E5"/>
</g>
<defs>
<filter id="filter0_d" x="38.6077" y="89.7595" width="249.545" height="126.338" filterUnits="userSpaceOnUse" color-interpolation-filters="sRGB">
<feFlood flood-opacity="0" result="BackgroundImageFix"/>
<feColorMatrix in="SourceAlpha" type="matrix" values="0 0 0 0 0 0 0 0 0 0 0 0 0 0 0 0 0 0 127 0"/>
<feOffset dy="4"/>
<feGaussianBlur stdDeviation="5"/>
<feColorMatrix type="matrix" values="0 0 0 0 0 0 0 0 0 0 0 0 0 0 0 0 0 0 0.25 0"/>
<feBlend mode="normal" in2="BackgroundImageFix" result="effect1_dropShadow"/>
<feBlend mode="normal" in="SourceGraphic" in2="effect1_dropShadow" result="shape"/>
</filter>
</defs>
</svg>
